<svg width="26" height="26" viewBox="0 0 26 26" fill="none" xmlns="http://www.w3.org/2000/svg">
<rect width="26" height="26" rx="5.2" fill="#2787F5"/>
<path fill-rule="evenodd" clip-rule="evenodd" d="M6.85266 6.85657C5.8457 7.85757 5.8457 9.47823 5.8457 12.7136V13.2856C5.8457 16.521 5.8457 18.1417 6.85266 19.1427C7.85366 20.1496 9.47433 20.1496 12.7097 20.1496H13.2817C16.5171 20.1496 18.1377 20.1496 19.1387 19.1427C20.1457 18.1417 20.1457 16.521 20.1457 13.2856V12.7136C20.1457 9.47823 20.1457 7.85757 19.1387 6.85657C18.1377 5.84961 16.5171 5.84961 13.2817 5.84961H12.7097C9.47433 5.84961 7.85366 5.84961 6.85266 6.85657ZM8.25781 10.1993C8.33527 13.9173 10.1943 16.1517 13.4535 16.1517H13.6382V14.0246C14.2131 14.097 14.7538 14.3375 15.1926 14.7158C15.6314 15.0942 15.9488 15.5937 16.1049 16.1517H17.7971C17.6232 15.5093 17.3149 14.9111 16.8928 14.3965C16.4707 13.8819 15.9443 13.4628 15.3482 13.1666C15.8822 12.8425 16.3435 12.4116 16.7034 11.9011C17.0632 11.3905 17.3139 10.8112 17.4396 10.1993H15.9024C15.5687 11.3791 14.5796 12.4516 13.6382 12.5529V10.1993H12.1009V14.3225C11.1476 14.0842 9.94402 12.9283 9.8904 10.1993H8.25781Z" fill="#FBFBFD"/>
</svg>
